<svg width="1013" height="271" viewBox="0 0 1013 271" fill="none" xmlns="http://www.w3.org/2000/svg">
<path d="M50.3594 270.609C36.3906 252.984 24.5781 232.359 14.9219 208.734C5.26562 185.109 0.4375 160.641 0.4375 135.328C0.4375 113.016 4.04688 91.6406 11.2656 71.2031C19.7031 47.4844 32.7344 23.8594 50.3594 0.328125H68.5C57.1562 19.8281 49.6562 33.75 46 42.0938C40.2812 55.0312 35.7812 68.5312 32.5 82.5938C28.4688 100.125 26.4531 117.75 26.4531 135.469C26.4531 180.562 40.4688 225.609 68.5 270.609H50.3594ZM87.9062 41.6719L94.375 21.7031C109.281 26.9531 120.109 31.5 126.859 35.3438C125.078 18.375 124.141 6.70312 124.047 0.328125H144.438C144.156 9.60938 143.078 21.2344 141.203 35.2031C150.859 30.3281 161.922 25.8281 174.391 21.7031L180.859 41.6719C168.953 45.6094 157.281 48.2344 145.844 49.5469C151.562 54.5156 159.625 63.375 170.031 76.125L153.156 88.0781C147.719 80.6719 141.297 70.5938 133.891 57.8438C126.953 71.0625 120.859 81.1406 115.609 88.0781L99.0156 76.125C109.891 62.7188 117.672 53.8594 122.359 49.5469C110.266 47.2031 98.7812 44.5781 87.9062 41.6719ZM304.891 112.969H278.875L328.516 0.328125H348.906L398.828 112.969H373.375L338.641 29.0156L304.891 112.969ZM521.172 60.6562H545.641C531.672 91.5 524.688 117.562 524.688 138.844C524.688 155.25 527.688 168.469 533.688 178.5C539.688 188.531 547.328 193.547 556.609 193.547C562.609 193.547 568.234 191.203 573.484 186.516C578.734 181.828 582.203 176.203 583.891 169.641C585.672 163.078 586.562 153.891 586.562 142.078V98.3438H611.734V142.078C611.734 153.609 612.578 162.75 614.266 169.5C616.047 176.25 619.562 181.969 624.812 186.656C630.156 191.25 635.828 193.547 641.828 193.547C651.016 193.547 658.609 188.578 664.609 178.641C670.609 168.609 673.609 155.344 673.609 138.844C673.609 117.562 666.672 91.5 652.797 60.6562H677.125C691.938 87 699.344 112.547 699.344 137.297C699.344 162.141 694.188 181.031 683.875 193.969C673.656 206.906 660.578 213.375 644.641 213.375C623.453 213.375 608.312 202.172 599.219 179.766C590.031 202.172 574.844 213.375 553.656 213.375C536.875 213.375 523.562 206.578 513.719 192.984C503.875 179.391 498.953 160.828 498.953 137.297C498.953 112.547 506.359 87 521.172 60.6562ZM825.484 112.969H799.469L849.109 0.328125H869.5L919.422 112.969H893.969L859.234 29.0156L825.484 112.969ZM962.734 270.609H944.594C972.625 225.609 986.641 180.562 986.641 135.469C986.641 117.844 984.625 100.359 980.594 83.0156C977.406 68.9531 972.953 55.4531 967.234 42.5156C963.578 34.0781 956.031 20.0156 944.594 0.328125H962.734C980.359 23.8594 993.391 47.4844 1001.83 71.2031C1009.05 91.6406 1012.66 113.016 1012.66 135.328C1012.66 160.641 1007.78 185.109 998.031 208.734C988.375 232.359 976.609 252.984 962.734 270.609Z" fill="white"/>
</svg>
