<svg width="1017" height="271" viewBox="0 0 1017 271" fill="none" xmlns="http://www.w3.org/2000/svg">
<path d="M50.3594 270.609C36.3906 252.984 24.5781 232.359 14.9219 208.734C5.26562 185.109 0.4375 160.641 0.4375 135.328C0.4375 113.016 4.04688 91.6406 11.2656 71.2031C19.7031 47.4844 32.7344 23.8594 50.3594 0.328125H68.5C57.1562 19.8281 49.6562 33.75 46 42.0938C40.2812 55.0312 35.7812 68.5312 32.5 82.5938C28.4688 100.125 26.4531 117.75 26.4531 135.469C26.4531 180.562 40.4688 225.609 68.5 270.609H50.3594ZM88.4688 135.328C88.4688 107.672 96.1562 87.1875 111.531 73.875C124.375 62.8125 140.031 57.2812 158.5 57.2812C179.031 57.2812 195.812 64.0312 208.844 77.5312C221.875 90.9375 228.391 109.5 228.391 133.219C228.391 152.438 225.484 167.578 219.672 178.641C213.953 189.609 205.562 198.141 194.5 204.234C183.531 210.328 171.531 213.375 158.5 213.375C137.594 213.375 120.672 206.672 107.734 193.266C94.8906 179.859 88.4688 160.547 88.4688 135.328ZM114.484 135.328C114.484 154.453 118.656 168.797 127 178.359C135.344 187.828 145.844 192.562 158.5 192.562C171.062 192.562 181.516 187.781 189.859 178.219C198.203 168.656 202.375 154.078 202.375 134.484C202.375 116.016 198.156 102.047 189.719 92.5781C181.375 83.0156 170.969 78.2344 158.5 78.2344C145.844 78.2344 135.344 82.9688 127 92.4375C118.656 101.906 114.484 116.203 114.484 135.328ZM272.828 112.969H246.812L296.453 0.328125H316.844L366.766 112.969H341.312L306.578 29.0156L272.828 112.969ZM505.252 210L389.188 9.26399H621.028L505.252 210ZM505.252 187.248L601.156 20.784H409.06L505.252 187.248ZM669.391 112.969H643.375L693.016 0.328125H713.406L763.328 112.969H737.875L703.141 29.0156L669.391 112.969ZM780.625 135.328C780.625 107.672 788.312 87.1875 803.688 73.875C816.531 62.8125 832.188 57.2812 850.656 57.2812C871.188 57.2812 887.969 64.0312 901 77.5312C914.031 90.9375 920.547 109.5 920.547 133.219C920.547 152.438 917.641 167.578 911.828 178.641C906.109 189.609 897.719 198.141 886.656 204.234C875.688 210.328 863.688 213.375 850.656 213.375C829.75 213.375 812.828 206.672 799.891 193.266C787.047 179.859 780.625 160.547 780.625 135.328ZM806.641 135.328C806.641 154.453 810.812 168.797 819.156 178.359C827.5 187.828 838 192.562 850.656 192.562C863.219 192.562 873.672 187.781 882.016 178.219C890.359 168.656 894.531 154.078 894.531 134.484C894.531 116.016 890.312 102.047 881.875 92.5781C873.531 83.0156 863.125 78.2344 850.656 78.2344C838 78.2344 827.5 82.9688 819.156 92.4375C810.812 101.906 806.641 116.203 806.641 135.328ZM966.953 270.609H948.812C976.844 225.609 990.859 180.562 990.859 135.469C990.859 117.844 988.844 100.359 984.812 83.0156C981.625 68.9531 977.172 55.4531 971.453 42.5156C967.797 34.0781 960.25 20.0156 948.812 0.328125H966.953C984.578 23.8594 997.609 47.4844 1006.05 71.2031C1013.27 91.6406 1016.88 113.016 1016.88 135.328C1016.88 160.641 1012 185.109 1002.25 208.734C992.594 232.359 980.828 252.984 966.953 270.609Z" fill="white"/>
</svg>
