<svg width="1123" height="254" viewBox="0 0 1123 254" fill="none" xmlns="http://www.w3.org/2000/svg">
<path d="M65.8125 252.844H45.2812C16.2188 219.656 1.6875 178.734 1.6875 130.078C1.6875 81.2344 16.2188 39.6562 45.2812 5.34375H66.0938C36.6562 40.9688 21.9375 82.4531 21.9375 129.797C21.9375 176.766 36.5625 217.781 65.8125 252.844ZM178.594 51.75L140.062 59.625L166.781 93.7969L151.312 104.484L129.375 67.2188L107.156 104.484L91.6875 93.7969L118.406 59.625L79.5938 51.75L85.9219 34.1719L122.766 48.0938L119.531 5.34375H138.938L135.703 48.0938L172.688 34.1719L178.594 51.75ZM433.125 119.25H412.031L365.344 32.2031H364.5L321.047 119.25H300.375L359.719 1.96875H368.859L433.125 119.25ZM660.797 183.375H660.234C650.578 201.281 636.281 210.234 617.344 210.234C599.625 210.234 585.797 204.281 575.859 192.375C565.922 180.375 560.953 163.875 560.953 142.875C560.953 118.688 566.859 92.0625 578.672 63H604.406C591 92.9062 584.297 119.812 584.297 143.719C584.297 158.625 587.156 170.062 592.875 178.031C598.594 186 606.562 189.984 616.781 189.984C638.344 189.984 649.125 173.766 649.125 141.328V101.531H672.188V141.328C672.188 173.766 682.922 189.984 704.391 189.984C714.422 189.984 722.297 186 728.016 178.031C733.828 170.062 736.734 158.625 736.734 143.719C736.734 119.812 730.078 92.9062 716.766 63H742.359C754.266 92.1562 760.219 118.781 760.219 142.875C760.219 163.969 755.203 180.469 745.172 192.375C735.234 204.281 721.312 210.234 703.406 210.234C684.469 210.234 670.266 201.281 660.797 183.375ZM1021.22 119.25H1000.12L953.438 32.2031H952.594L909.141 119.25H888.469L947.812 1.96875H956.953L1021.22 119.25ZM1077.19 252.844H1056.66C1085.91 217.781 1100.53 176.766 1100.53 129.797C1100.53 82.4531 1085.81 40.9688 1056.38 5.34375H1077.19C1106.44 39.6562 1121.06 81.2344 1121.06 130.078C1121.06 178.734 1106.44 219.656 1077.19 252.844Z" fill="black"/>
<path d="M65.8125 252.844V253.844H67.949L66.5804 252.203L65.8125 252.844ZM45.2812 252.844L44.5289 253.503L44.8277 253.844H45.2812V252.844ZM45.2812 5.34375V4.34375H44.8177L44.5182 4.69743L45.2812 5.34375ZM66.0938 5.34375L66.8646 5.98074L68.2173 4.34375H66.0938V5.34375ZM65.8125 251.844H45.2812V253.844H65.8125V251.844ZM46.0336 252.185C17.1476 219.199 2.6875 178.519 2.6875 130.078H0.6875C0.6875 178.95 15.2899 220.113 44.5289 253.503L46.0336 252.185ZM2.6875 130.078C2.6875 81.4491 17.1484 40.1059 46.0443 5.99007L44.5182 4.69743C15.2891 39.2066 0.6875 81.0196 0.6875 130.078H2.6875ZM45.2812 6.34375H66.0938V4.34375H45.2812V6.34375ZM65.3229 4.70676C35.7334 40.5157 20.9375 82.2268 20.9375 129.797H22.9375C22.9375 82.6794 37.5791 41.4218 66.8646 5.98074L65.3229 4.70676ZM20.9375 129.797C20.9375 176.992 35.64 218.237 65.0446 253.484L66.5804 252.203C37.485 217.326 22.9375 176.539 22.9375 129.797H20.9375ZM178.594 51.75L178.794 52.7297L179.902 52.5033L179.542 51.4315L178.594 51.75ZM140.062 59.625L139.862 58.6453L138.28 58.9687L139.275 60.241L140.062 59.625ZM166.781 93.7969L167.35 94.6196L168.222 94.0166L167.569 93.1809L166.781 93.7969ZM151.312 104.484L150.451 104.992L150.996 105.918L151.881 105.307L151.312 104.484ZM129.375 67.2188L130.237 66.7114L129.38 65.2569L128.516 66.7066L129.375 67.2188ZM107.156 104.484L106.588 105.307L107.468 105.915L108.015 104.996L107.156 104.484ZM91.6875 93.7969L90.8997 93.1809L90.2463 94.0166L91.1191 94.6196L91.6875 93.7969ZM118.406 59.625L119.194 60.241L120.19 58.9666L118.605 58.645L118.406 59.625ZM79.5938 51.75L78.6529 51.4113L78.2609 52.5L79.3949 52.73L79.5938 51.75ZM85.9219 34.1719L86.2753 33.2364L85.3251 32.8774L84.981 33.8332L85.9219 34.1719ZM122.766 48.0938L122.412 49.0292L123.881 49.5843L123.763 48.0183L122.766 48.0938ZM119.531 5.34375V4.34375H118.453L118.534 5.41919L119.531 5.34375ZM138.938 5.34375L139.935 5.41919L140.016 4.34375H138.938V5.34375ZM135.703 48.0938L134.706 48.0183L134.588 49.5821L136.055 49.0296L135.703 48.0938ZM172.688 34.1719L173.635 33.8534L173.305 32.8708L172.335 33.236L172.688 34.1719ZM178.394 50.7703L139.862 58.6453L140.263 60.6047L178.794 52.7297L178.394 50.7703ZM139.275 60.241L165.993 94.4128L167.569 93.1809L140.85 59.009L139.275 60.241ZM166.213 92.9741L150.744 103.662L151.881 105.307L167.35 94.6196L166.213 92.9741ZM152.174 103.977L130.237 66.7114L128.513 67.7261L150.451 104.992L152.174 103.977ZM128.516 66.7066L106.297 103.972L108.015 104.996L130.234 67.7309L128.516 66.7066ZM107.725 103.662L92.2559 92.9741L91.1191 94.6196L106.588 105.307L107.725 103.662ZM92.4753 94.4128L119.194 60.241L117.618 59.009L90.8997 93.1809L92.4753 94.4128ZM118.605 58.645L79.7926 50.77L79.3949 52.73L118.207 60.605L118.605 58.645ZM80.5346 52.0887L86.8628 34.5106L84.981 33.8332L78.6529 51.4113L80.5346 52.0887ZM85.5684 35.1073L122.412 49.0292L123.119 47.1583L86.2753 33.2364L85.5684 35.1073ZM123.763 48.0183L120.528 5.26831L118.534 5.41919L121.768 48.1692L123.763 48.0183ZM119.531 6.34375H138.938V4.34375H119.531V6.34375ZM137.94 5.26831L134.706 48.0183L136.7 48.1692L139.935 5.41919L137.94 5.26831ZM136.055 49.0296L173.04 35.1078L172.335 33.236L135.351 47.1579L136.055 49.0296ZM171.74 34.4904L177.646 52.0685L179.542 51.4315L173.635 33.8534L171.74 34.4904ZM433.125 119.25V120.25H434.813L434.002 118.769L433.125 119.25ZM412.031 119.25L411.15 119.723L411.433 120.25H412.031V119.25ZM365.344 32.2031L366.225 31.7305L365.942 31.2031H365.344V32.2031ZM364.5 32.2031V31.2031H363.882L363.605 31.7565L364.5 32.2031ZM321.047 119.25V120.25H321.665L321.942 119.697L321.047 119.25ZM300.375 119.25L299.483 118.799L298.748 120.25H300.375V119.25ZM359.719 1.96875V0.96875H359.104L358.826 1.51726L359.719 1.96875ZM368.859 1.96875L369.736 1.4882L369.452 0.96875H368.859V1.96875ZM433.125 118.25H412.031V120.25H433.125V118.25ZM412.912 118.777L366.225 31.7305L364.463 32.6758L411.15 119.723L412.912 118.777ZM365.344 31.2031H364.5V33.2031H365.344V31.2031ZM363.605 31.7565L320.152 118.803L321.942 119.697L365.395 32.6498L363.605 31.7565ZM321.047 118.25H300.375V120.25H321.047V118.25ZM301.267 119.701L360.611 2.42024L358.826 1.51726L299.483 118.799L301.267 119.701ZM359.719 2.96875H368.859V0.96875H359.719V2.96875ZM367.982 2.4493L432.248 119.731L434.002 118.769L369.736 1.4882L367.982 2.4493ZM660.797 183.375L661.681 182.908L661.399 182.375H660.797V183.375ZM660.234 183.375V182.375H659.638L659.354 182.9L660.234 183.375ZM575.859 192.375L575.089 193.013L575.092 193.016L575.859 192.375ZM578.672 63V62H577.999L577.745 62.6235L578.672 63ZM604.406 63L605.319 63.4091L605.95 62H604.406V63ZM649.125 101.531V100.531H648.125V101.531H649.125ZM672.188 101.531H673.188V100.531H672.188V101.531ZM728.016 178.031L727.208 177.442L727.203 177.448L728.016 178.031ZM716.766 63V62H715.226L715.852 63.4067L716.766 63ZM742.359 63L743.285 62.6219L743.031 62H742.359V63ZM745.172 192.375L744.407 191.731L744.404 191.734L745.172 192.375ZM660.797 182.375H660.234V184.375H660.797V182.375ZM659.354 182.9C654.591 191.732 648.713 198.305 641.739 202.672C634.768 207.037 626.648 209.234 617.344 209.234V211.234C626.977 211.234 635.474 208.955 642.8 204.367C650.123 199.781 656.221 192.924 661.115 183.85L659.354 182.9ZM617.344 209.234C599.874 209.234 586.346 203.379 576.627 191.734L575.092 193.016C585.248 205.184 599.376 211.234 617.344 211.234V209.234ZM576.63 191.737C566.885 179.97 561.953 163.723 561.953 142.875H559.953C559.953 164.027 564.959 180.78 575.089 193.013L576.63 191.737ZM561.953 142.875C561.953 118.849 567.821 92.3533 579.598 63.3765L577.745 62.6235C565.898 91.7717 559.953 118.526 559.953 142.875H561.953ZM578.672 64H604.406V62H578.672V64ZM603.494 62.5909C590.05 92.581 583.297 119.629 583.297 143.719H585.297C585.297 119.996 591.95 93.2315 605.319 63.4091L603.494 62.5909ZM583.297 143.719C583.297 158.732 586.173 170.408 592.063 178.614L593.687 177.448C588.139 169.717 585.297 158.518 585.297 143.719H583.297ZM592.063 178.614C597.978 186.857 606.256 190.984 616.781 190.984V188.984C606.869 188.984 599.209 185.143 593.687 177.448L592.063 178.614ZM616.781 190.984C627.855 190.984 636.274 186.796 641.872 178.374C647.422 170.024 650.125 157.626 650.125 141.328H648.125C648.125 157.468 645.437 169.398 640.206 177.267C635.023 185.064 627.27 188.984 616.781 188.984V190.984ZM650.125 141.328V101.531H648.125V141.328H650.125ZM649.125 102.531H672.188V100.531H649.125V102.531ZM671.188 101.531V141.328H673.188V101.531H671.188ZM671.188 141.328C671.188 157.625 673.878 170.023 679.404 178.372C684.978 186.794 693.362 190.984 704.391 190.984V188.984C693.951 188.984 686.233 185.065 681.072 177.268C675.864 169.399 673.188 157.468 673.188 141.328H671.188ZM704.391 190.984C714.735 190.984 722.916 186.852 728.828 178.614L727.203 177.448C721.677 185.148 714.108 188.984 704.391 188.984V190.984ZM728.824 178.621C734.81 170.413 737.734 158.735 737.734 143.719H735.734C735.734 158.515 732.846 169.712 727.208 177.442L728.824 178.621ZM737.734 143.719C737.734 119.631 731.029 92.5831 717.679 62.5933L715.852 63.4067C729.127 93.2294 735.734 119.994 735.734 143.719H737.734ZM716.766 64H742.359V62H716.766V64ZM741.434 63.3781C753.305 92.4493 759.219 118.944 759.219 142.875H761.219C761.219 118.618 755.226 91.8632 743.285 62.6219L741.434 63.3781ZM759.219 142.875C759.219 163.817 754.24 180.06 744.407 191.731L745.937 193.019C756.166 180.878 761.219 164.121 761.219 142.875H759.219ZM744.404 191.734C734.687 203.376 721.067 209.234 703.406 209.234V211.234C721.558 211.234 735.782 205.186 745.94 193.016L744.404 191.734ZM703.406 209.234C694.101 209.234 686.006 207.037 679.084 202.674C672.158 198.308 666.35 191.738 661.681 182.908L659.913 183.842C664.712 192.918 670.74 199.778 678.018 204.365C685.299 208.955 693.774 211.234 703.406 211.234V209.234ZM1021.22 119.25V120.25H1022.91L1022.1 118.769L1021.22 119.25ZM1000.12 119.25L999.244 119.723L999.527 120.25H1000.12V119.25ZM953.438 32.2031L954.319 31.7305L954.036 31.2031H953.438V32.2031ZM952.594 32.2031V31.2031H951.975L951.699 31.7565L952.594 32.2031ZM909.141 119.25V120.25H909.759L910.035 119.697L909.141 119.25ZM888.469 119.25L887.576 118.799L886.842 120.25H888.469V119.25ZM947.812 1.96875V0.96875H947.198L946.92 1.51726L947.812 1.96875ZM956.953 1.96875L957.83 1.4882L957.545 0.96875H956.953V1.96875ZM1021.22 118.25H1000.12V120.25H1021.22V118.25ZM1001.01 118.777L954.319 31.7305L952.556 32.6758L999.244 119.723L1001.01 118.777ZM953.438 31.2031H952.594V33.2031H953.438V31.2031ZM951.699 31.7565L908.246 118.803L910.035 119.697L953.488 32.6498L951.699 31.7565ZM909.141 118.25H888.469V120.25H909.141V118.25ZM889.361 119.701L948.705 2.42024L946.92 1.51726L887.576 118.799L889.361 119.701ZM947.812 2.96875H956.953V0.96875H947.812V2.96875ZM956.076 2.4493L1020.34 119.731L1022.1 118.769L957.83 1.4882L956.076 2.4493ZM1077.19 252.844V253.844H1077.64L1077.94 253.505L1077.19 252.844ZM1056.66 252.844L1055.89 252.203L1054.52 253.844H1056.66V252.844ZM1056.38 5.34375V4.34375H1054.25L1055.6 5.98074L1056.38 5.34375ZM1077.19 5.34375L1077.95 4.69502L1077.65 4.34375H1077.19V5.34375ZM1077.19 251.844H1056.66V253.844H1077.19V251.844ZM1057.42 253.484C1086.83 218.237 1101.53 176.992 1101.53 129.797H1099.53C1099.53 176.539 1084.98 217.326 1055.89 252.203L1057.42 253.484ZM1101.53 129.797C1101.53 82.2268 1086.74 40.5157 1057.15 4.70676L1055.6 5.98074C1084.89 41.4218 1099.53 82.6794 1099.53 129.797H1101.53ZM1056.38 6.34375H1077.19V4.34375H1056.38V6.34375ZM1076.43 5.99248C1105.51 40.1084 1120.06 81.4508 1120.06 130.078H1122.06C1122.06 81.0179 1107.37 39.2041 1077.95 4.69502L1076.43 5.99248ZM1120.06 130.078C1120.06 178.517 1105.51 219.196 1076.44 252.183L1077.94 253.505C1107.37 220.116 1122.06 178.952 1122.06 130.078H1120.06Z" fill="white"/>
</svg>
